<svg width="118" height="31" viewBox="0 0 118 31" fill="none" xmlns="http://www.w3.org/2000/svg">
<path d="M0.464 24V1.664H5.328V19.68H13.84V24H0.464ZM23.8723 24.384C22.5923 24.384 21.4509 24.1813 20.4483 23.776C19.4456 23.3493 18.5923 22.7627 17.8883 22.016C17.2056 21.248 16.6829 20.32 16.3203 19.232C15.9789 18.144 15.8083 16.928 15.8083 15.584C15.8083 14.2613 15.9789 13.0667 16.3203 12C16.6616 10.912 17.1629 9.984 17.8243 9.216C18.5069 8.448 19.3389 7.86133 20.3203 7.456C21.3016 7.02933 22.4216 6.816 23.6803 6.816C25.0669 6.816 26.2509 7.05067 27.2323 7.52C28.2349 7.98933 29.0456 8.61867 29.6643 9.408C30.3043 10.1973 30.7629 11.1147 31.0403 12.16C31.3389 13.184 31.4883 14.2613 31.4883 15.392V16.8H20.7043V17.056C20.7043 18.1653 21.0029 19.0507 21.6003 19.712C22.1976 20.352 23.1363 20.672 24.4163 20.672C25.3976 20.672 26.1976 20.48 26.8163 20.096C27.4349 19.6907 28.0109 19.2107 28.5443 18.656L30.9123 21.6C30.1656 22.4747 29.1843 23.1573 27.9683 23.648C26.7736 24.1387 25.4083 24.384 23.8723 24.384ZM23.7763 10.304C22.8163 10.304 22.0589 10.624 21.5043 11.264C20.9709 11.8827 20.7043 12.7147 20.7043 13.76V14.016H26.5923V13.728C26.5923 12.704 26.3576 11.8827 25.8883 11.264C25.4403 10.624 24.7363 10.304 23.7763 10.304ZM38.1045 24L32.6005 7.2H37.2725L39.3525 13.984L40.9205 20.064H41.1765L42.7445 13.984L44.7605 7.2H49.2405L43.7365 24H38.1045ZM58.4973 24.384C57.2173 24.384 56.0759 24.1813 55.0733 23.776C54.0706 23.3493 53.2173 22.7627 52.5133 22.016C51.8306 21.248 51.3079 20.32 50.9453 19.232C50.6039 18.144 50.4333 16.928 50.4333 15.584C50.4333 14.2613 50.6039 13.0667 50.9453 12C51.2866 10.912 51.7879 9.984 52.4493 9.216C53.1319 8.448 53.9639 7.86133 54.9453 7.456C55.9266 7.02933 57.0466 6.816 58.3053 6.816C59.6919 6.816 60.8759 7.05067 61.8573 7.52C62.8599 7.98933 63.6706 8.61867 64.2893 9.408C64.9293 10.1973 65.3879 11.1147 65.6653 12.16C65.9639 13.184 66.1133 14.2613 66.1133 15.392V16.8H55.3293V17.056C55.3293 18.1653 55.6279 19.0507 56.2253 19.712C56.8226 20.352 57.7613 20.672 59.0413 20.672C60.0226 20.672 60.8226 20.48 61.4413 20.096C62.0599 19.6907 62.6359 19.2107 63.1693 18.656L65.5373 21.6C64.7906 22.4747 63.8093 23.1573 62.5933 23.648C61.3986 24.1387 60.0333 24.384 58.4973 24.384ZM58.4013 10.304C57.4413 10.304 56.6839 10.624 56.1293 11.264C55.5959 11.8827 55.3293 12.7147 55.3293 13.76V14.016H61.2173V13.728C61.2173 12.704 60.9826 11.8827 60.5133 11.264C60.0653 10.624 59.3613 10.304 58.4013 10.304ZM74.162 24C72.5407 24 71.346 23.6053 70.578 22.816C69.8313 22.0267 69.458 20.8853 69.458 19.392V0.32H74.194V20.32H76.306V24H74.162Z" fill="#021526"/>
<path d="M84.0095 1.664V15.36C84.0095 16.9387 84.3188 18.1227 84.9375 18.912C85.5562 19.68 86.5908 20.064 88.0415 20.064C89.4922 20.064 90.5268 19.68 91.1455 18.912C91.7642 18.1227 92.0735 16.9387 92.0735 15.36V1.664H96.8095V14.848C96.8095 16.4907 96.6495 17.92 96.3295 19.136C96.0308 20.3307 95.5295 21.3227 94.8255 22.112C94.1215 22.88 93.2148 23.456 92.1055 23.84C90.9962 24.2027 89.6415 24.384 88.0415 24.384C86.4415 24.384 85.0868 24.2027 83.9775 23.84C82.8682 23.456 81.9615 22.88 81.2575 22.112C80.5535 21.3227 80.0415 20.3307 79.7215 19.136C79.4228 17.92 79.2735 16.4907 79.2735 14.848V1.664H84.0095ZM101.364 7.2H106.1V10.016H106.26C106.495 9.07733 107.028 8.30933 107.86 7.712C108.714 7.11467 109.684 6.816 110.772 6.816C112.906 6.816 114.516 7.56267 115.604 9.056C116.692 10.5493 117.236 12.7253 117.236 15.584C117.236 18.4427 116.692 20.6293 115.604 22.144C114.516 23.6373 112.906 24.384 110.772 24.384C110.218 24.384 109.695 24.2987 109.204 24.128C108.714 23.9787 108.266 23.7653 107.86 23.488C107.476 23.1893 107.146 22.848 106.868 22.464C106.591 22.0587 106.388 21.632 106.26 21.184H106.1V30.4H101.364V7.2ZM109.204 20.544C110.1 20.544 110.836 20.2347 111.412 19.616C112.01 18.976 112.308 18.1227 112.308 17.056V14.144C112.308 13.0773 112.01 12.2347 111.412 11.616C110.836 10.976 110.1 10.656 109.204 10.656C108.308 10.656 107.562 10.88 106.964 11.328C106.388 11.7547 106.1 12.352 106.1 13.12V18.08C106.1 18.848 106.388 19.456 106.964 19.904C107.562 20.3307 108.308 20.544 109.204 20.544Z" fill="#0360D9"/>
</svg>
