<svg width="152" height="146" viewBox="0 0 152 146" fill="none" xmlns="http://www.w3.org/2000/svg">
<path d="M76 0.233459C73.0401 16.1611 59.6048 51.2695 51.3766 81.3369V134.721L76 145.629L100.623 134.721V81.3369C92.3952 51.2692 78.9598 16.1608 76 0.233459Z" fill="#3D7A94"/>
<path d="M44.8997 16.3237C51.3858 29.7411 45.7042 36.2875 39.3003 69.7078C37.0378 81.5151 37.1827 92.1943 39.124 101.604L76 145.626C76 114.501 58.9258 97.966 55.6071 68.9632C51.7412 35.1749 55.1383 27.3023 44.8997 16.3237Z" fill="#0E4675"/>
<path d="M112.699 69.7073C106.296 36.2873 100.614 29.7407 107.1 16.3232C96.862 27.3018 100.259 35.1745 96.3929 68.9621C93.0745 97.9652 76 114.5 76 145.626L112.876 101.604C114.817 92.1935 114.962 81.5146 112.699 69.7073Z" fill="#0E4675"/>
<path d="M0 48.7957C12.8194 54.2303 13.0227 62.0668 29.3342 88.9337C43.3363 111.996 74.6198 127.391 76.0742 145.63C52.6558 147.399 25.1091 132.132 15.9719 95.54C8.39919 65.2132 10.6222 57.6479 0 48.7957Z" fill="#3D7A94"/>
<path d="M152 48.7957C139.181 54.2303 138.977 62.0668 122.665 88.9337C108.663 111.996 77.3796 127.391 75.9252 145.63C99.3436 147.399 126.891 132.132 136.028 95.54C143.601 65.2132 141.378 57.6479 152 48.7957Z" fill="#3D7A94"/>
</svg>
