<svg width="114" height="146" viewBox="0 0 114 146" fill="none" xmlns="http://www.w3.org/2000/svg">
<path d="M57 143.714C-65.0753 143.714 57 3.78259 57 3.78259C57 3.78259 179.075 143.714 57 143.714Z" fill="#43B05C"/>
<path d="M111.074 89.0389C107.775 77.2488 101.558 63.7042 92.5973 48.7808C77.4064 23.482 59.2772 2.61004 59.0957 2.40216L57 0L54.9043 2.40216C54.7225 2.61004 36.5939 23.482 21.4027 48.7805C12.4413 63.7039 6.22529 77.2485 2.92633 89.0386C-1.28516 104.089 -0.745721 116.401 4.53086 125.632C12.2566 139.147 29.9097 146 57 146C84.09 146 101.743 139.147 109.469 125.632C114.745 116.401 115.285 104.09 111.074 89.0389ZM104.758 123.598C98.2365 135.008 83.0577 140.992 59.6299 141.404V124.305C60.0614 123.195 61.7079 119.244 64.6712 115.305C69.0908 109.431 74.1649 106.453 79.7532 106.453V101.883C70.2244 101.883 63.6718 107.97 59.6299 113.654V80.4072C60.9424 78.3567 66.7949 69.9505 74.5042 69.9505V65.3798C68.1694 65.3798 63.0743 68.9764 59.6299 72.4497V34.2034H54.3704V51.8873C51.3799 49.4415 47.0273 47.1266 41.249 47.1266V51.6974C48.7582 51.6974 53.2486 57.4915 54.3704 59.1343V94.0904C50.5264 90.514 44.4351 86.6735 36 86.6735V91.2443C46.7556 91.2443 53.0205 99.6855 54.3704 101.715V141.404C30.9429 140.992 15.7649 135.009 9.24273 123.6C-9.60542 90.6318 45.4064 21.5849 57.0026 7.6419C62.1726 13.8443 75.9693 30.9688 87.9343 50.8955C107.502 83.4815 113.319 108.622 104.758 123.598Z" fill="black"/>
</svg>
