<svg width="69" height="147" viewBox="0 0 69 147" fill="none" xmlns="http://www.w3.org/2000/svg">
<path d="M56.447 142.961H12.5533L8.39279 99.3716H60.6069L56.447 142.961Z" fill="#FFE49C"/>
<path d="M59.6046 37.3562C64.8831 32.4958 66.814 25.6402 63.8437 20.5316C60.8734 15.423 53.9299 13.6556 47.0521 15.7652C45.4527 8.79577 40.4397 3.70707 34.4996 3.70707C28.5594 3.70707 23.5464 8.79527 21.9471 15.7652C15.0692 13.6561 8.12579 15.423 5.15546 20.5316C2.18513 25.6402 4.1161 32.4958 9.39456 37.3562C4.1161 42.2165 2.18513 49.0721 5.15546 54.1807C8.12579 59.2893 15.0692 61.0567 21.9471 58.9471C23.5464 65.9165 28.5594 71.0052 34.4996 71.0052C40.4397 71.0052 45.4527 65.9165 47.0521 58.9471C53.9299 61.0567 60.8734 59.2893 63.8437 54.1807C66.814 49.0721 64.8831 42.2165 59.6046 37.3562Z" fill="#F59D00"/>
<path d="M34.4996 50.354C41.7282 50.354 47.5881 44.5346 47.5881 37.3561C47.5881 30.1777 41.7282 24.3583 34.4996 24.3583C27.271 24.3583 21.4111 30.1777 21.4111 37.3561C21.4111 44.5346 27.271 50.354 34.4996 50.354Z" fill="#FFE49C"/>
<path d="M64.6948 37.3562C74.8419 24.4529 65.9325 9.11072 49.5972 11.3875C43.4176 -3.79259 25.5846 -3.79905 19.4025 11.3875C3.07524 9.11023 -5.84776 24.446 4.30495 37.3562C-5.84225 50.2581 3.06221 65.5983 19.4025 63.3245C21.643 68.8291 25.8371 72.8329 30.7434 74.2088V95.6405H8.39328C6.17931 95.6405 4.44419 97.5352 4.65357 99.7234L6.05158 114.372C6.05208 114.378 6.05258 114.384 6.05308 114.391L8.81353 143.313C8.99636 145.229 10.6158 146.692 12.5532 146.692H56.447C58.3844 146.692 60.0043 145.229 60.1867 143.313L62.9471 114.391C62.9476 114.385 62.9481 114.379 62.9486 114.372L64.3466 99.7234C64.556 97.5347 62.8199 95.6405 60.6069 95.6405H38.2568V87.8776L54.6272 80.2615C56.5061 79.3875 57.3155 77.1665 56.4354 75.3006C55.5554 73.4348 53.3183 72.6314 51.44 73.5049L38.2568 79.6387V74.2093C43.1626 72.8334 47.3567 68.8296 49.5977 63.325C65.9225 65.6008 74.849 50.267 64.6948 37.3562ZM15.9704 139.231L13.9187 117.732H55.0805L53.0288 139.231H15.9704ZM55.7928 110.27H13.2064L12.5222 103.102H56.4765L55.7928 110.27ZM60.5904 52.3154C58.5918 55.7532 53.4801 57.0141 48.1611 55.3826C46.0709 54.7414 43.8749 56.0044 43.3895 58.1184C42.1523 63.5096 38.4968 67.2746 34.4996 67.2746C30.5024 67.2746 26.8474 63.5096 25.6097 58.1184C25.1243 56.0039 22.9278 54.7419 20.8381 55.3826C15.5191 57.0146 10.4074 55.7532 8.40881 52.3154C6.41022 48.8777 7.86583 43.8512 11.9487 40.0921C13.55 38.6172 13.5525 36.0967 11.9487 34.6209C7.86583 30.8613 6.41022 25.8348 8.40881 22.3976C10.4074 18.9598 15.5186 17.6988 20.8386 19.3299C22.9278 19.9711 25.1243 18.7086 25.6097 16.594C26.8469 11.2029 30.5024 7.43787 34.4996 7.43787C38.4963 7.43787 42.1518 11.2029 43.3895 16.594C43.8759 18.7121 46.0754 19.9696 48.1606 19.3299C53.4826 17.6993 58.5923 18.9598 60.5904 22.3976C62.589 25.8353 61.1329 30.8613 57.0505 34.6209C55.4492 36.0953 55.4467 38.6157 57.0505 40.0921C61.1334 43.8512 62.5895 48.8777 60.5904 52.3154Z" fill="#414042"/>
<path d="M34.5001 20.6276C25.2115 20.6276 17.6549 28.1318 17.6549 37.3562C17.6549 46.5805 25.2115 54.0847 34.5001 54.0847C43.7888 54.0847 51.3453 46.5805 51.3453 37.3562C51.3453 28.1318 43.7883 20.6276 34.5001 20.6276ZM34.5001 46.6238C29.3544 46.6238 25.1684 42.4667 25.1684 37.3566C25.1684 32.2466 29.3549 28.0895 34.5001 28.0895C39.6458 28.0895 43.8319 32.2466 43.8319 37.3566C43.8319 42.4662 39.6453 46.6238 34.5001 46.6238Z" fill="#414042"/>
</svg>
