<svg width="136" height="127" viewBox="0 0 136 127" fill="none" xmlns="http://www.w3.org/2000/svg">
<path d="M36.125 21.8281C33.8707 21.8281 31.7087 20.9919 30.1146 19.5033C28.5205 18.0147 27.625 15.9958 27.625 13.8906C27.625 11.7855 28.5205 9.76653 30.1146 8.27796C31.7087 6.78939 33.8707 5.95313 36.125 5.95312H136V21.8281H36.125Z" fill="#C97E67"/>
<path d="M127.473 5.95312C127.316 9.07411 126.408 12.1219 124.816 14.8702C123.225 17.6185 120.991 19.9967 118.28 21.8281H136V5.95312H127.473Z" fill="#C0694E"/>
<path d="M44.625 5.95312V53.5781C44.625 55.157 45.2966 56.6712 46.4922 57.7876C47.6877 58.904 49.3092 59.5312 51 59.5312C52.6908 59.5312 54.3123 58.904 55.5078 57.7876C56.7034 56.6712 57.375 55.157 57.375 53.5781V35.7188C57.375 34.1399 58.0466 32.6257 59.2422 31.5093C60.4377 30.3928 62.0592 29.7656 63.75 29.7656C65.4408 29.7656 67.0623 30.3928 68.2578 31.5093C69.4533 32.6257 70.125 34.1399 70.125 35.7188C70.125 37.0217 70.3998 38.3119 70.9338 39.5157C71.4677 40.7195 72.2504 41.8132 73.237 42.7346C75.2296 44.5953 77.9321 45.6406 80.75 45.6406C83.5679 45.6406 86.2704 44.5953 88.263 42.7346C90.2556 40.8739 91.375 38.3502 91.375 35.7188V5.95312C91.375 4.90055 90.9272 3.89108 90.1302 3.1468C89.3332 2.40251 88.2522 1.98438 87.125 1.98438H48.875C47.7478 1.98438 46.6668 2.40251 45.8698 3.1468C45.0728 3.89108 44.625 4.90055 44.625 5.95312V5.95312Z" fill="#FFD740"/>
<path d="M80.75 125.016V117.078H87.125C89.9429 117.078 92.6454 116.033 94.638 114.172C96.6306 112.311 97.75 109.788 97.75 107.156V83.3438C96.6337 83.344 95.5282 83.1389 94.4968 82.7401C93.4654 82.3413 92.5282 81.7567 91.7389 81.0196C90.9495 80.2824 90.3234 79.4073 89.8964 78.4442C89.4693 77.481 89.2497 76.4487 89.25 75.4062H85V67.4688H14.875V75.4062H10.625C10.6253 76.4487 10.4057 77.481 9.97862 78.4442C9.55156 79.4073 8.92547 80.2824 8.13611 81.0196C7.34675 81.7567 6.40959 82.3413 5.37818 82.7401C4.34677 83.1389 3.24132 83.344 2.125 83.3438V107.156C2.125 109.788 3.24442 112.311 5.23699 114.172C6.22361 115.093 7.3949 115.824 8.68399 116.323C9.97307 116.821 11.3547 117.078 12.75 117.078H19.125V125.016H80.75Z" fill="#EDEDED"/>
<path d="M65.875 97.2344H57.375L53.125 103.188L57.375 109.141H65.875L70.125 103.188L65.875 97.2344Z" fill="#FFD740"/>
<path d="M53.125 91.2812H44.625L40.375 97.2344L44.625 103.188H53.125L57.375 97.2344L53.125 91.2812Z" fill="#FFC400"/>
<path d="M40.375 97.2344H31.875L27.625 103.188L31.875 109.141H40.375L44.625 103.188L40.375 97.2344Z" fill="#FFD740"/>
<path d="M6.375 95.25C7.54861 95.25 8.5 94.3616 8.5 93.2656C8.5 92.1697 7.54861 91.2812 6.375 91.2812C5.20139 91.2812 4.25 92.1697 4.25 93.2656C4.25 94.3616 5.20139 95.25 6.375 95.25Z" fill="white"/>
<path d="M15.9375 95.25C17.6979 95.25 19.125 93.9173 19.125 92.2734C19.125 90.6295 17.6979 89.2969 15.9375 89.2969C14.1771 89.2969 12.75 90.6295 12.75 92.2734C12.75 93.9173 14.1771 95.25 15.9375 95.25Z" fill="white"/>
<path d="M8.5 103.188C9.67361 103.188 10.625 102.299 10.625 101.203C10.625 100.107 9.67361 99.2188 8.5 99.2188C7.32639 99.2188 6.375 100.107 6.375 101.203C6.375 102.299 7.32639 103.188 8.5 103.188Z" fill="white"/>
<path d="M34 13.8906C35.1736 13.8906 36.125 13.0022 36.125 11.9062C36.125 10.8103 35.1736 9.92188 34 9.92188C32.8264 9.92188 31.875 10.8103 31.875 11.9062C31.875 13.0022 32.8264 13.8906 34 13.8906Z" fill="#E8BEB3"/>
<path d="M51 35.7188C52.1736 35.7188 53.125 34.8303 53.125 33.7344C53.125 32.6384 52.1736 31.75 51 31.75C49.8264 31.75 48.875 32.6384 48.875 33.7344C48.875 34.8303 49.8264 35.7188 51 35.7188Z" fill="#FFE7A4"/>
<path d="M96.9887 63.936L132.901 113.433C133.85 114.741 134.203 116.346 133.884 117.897C133.565 119.448 132.599 120.816 131.199 121.702L125.921 125.042L82.8553 65.6862L88.1338 62.3465C89.5337 61.4607 91.2531 61.1306 92.9137 61.4287C94.5744 61.7268 96.0402 62.6287 96.9887 63.936Z" fill="#EDEDED"/>
<path d="M132.919 113.407L126.772 104.937C124.566 108.558 121.702 111.793 118.307 114.496L125.94 125.016L131.219 121.676C131.912 121.237 132.506 120.675 132.966 120.022C133.427 119.369 133.745 118.638 133.903 117.87C134.061 117.102 134.055 116.313 133.886 115.547C133.717 114.781 133.389 114.054 132.919 113.407V113.407Z" fill="#E2E2E2"/>
<path d="M93.5 69.4531C94.6736 69.4531 95.625 68.5647 95.625 67.4688C95.625 66.3728 94.6736 65.4844 93.5 65.4844C92.3264 65.4844 91.375 66.3728 91.375 67.4688C91.375 68.5647 92.3264 69.4531 93.5 69.4531Z" fill="#FFF5F2"/>
<path d="M91.375 26.7578C89.2465 30.2062 86.4001 33.2217 83.0038 35.6266C79.6075 38.0315 75.7299 39.777 71.5997 40.7603C72.5382 42.2471 73.8759 43.4794 75.4807 44.3353C77.0856 45.1913 78.9018 45.6412 80.75 45.6406C83.5679 45.6406 86.2704 44.5953 88.263 42.7346C90.2556 40.8739 91.375 38.3502 91.375 35.7188V26.7578Z" fill="#FFC400"/>
<path d="M57.375 46.8955C54.4252 51.0442 50.1607 54.2281 45.1777 56.0021C45.6793 57.0527 46.4961 57.9452 47.5294 58.5715C48.5626 59.1978 49.7681 59.5312 51 59.5313C52.6907 59.5313 54.3122 58.9041 55.5078 57.7876C56.7033 56.6712 57.375 55.157 57.375 53.5781V46.8955Z" fill="#FFC400"/>
<path d="M97.75 97.2344C97.1864 97.2344 96.6459 97.4434 96.2474 97.8156C95.8489 98.1877 95.625 98.6925 95.625 99.2188V107.156C95.6225 109.261 94.7261 111.278 93.1326 112.766C91.5391 114.254 89.3786 115.091 87.125 115.094H27.625C27.0614 115.094 26.5209 115.303 26.1224 115.675C25.7239 116.047 25.5 116.552 25.5 117.078C25.5 117.604 25.7239 118.109 26.1224 118.481C26.5209 118.853 27.0614 119.062 27.625 119.062H78.625V123.031H21.25V117.078C21.25 116.552 21.0261 116.047 20.6276 115.675C20.2291 115.303 19.6886 115.094 19.125 115.094H12.75C10.4964 115.091 8.3359 114.254 6.74239 112.766C5.14888 111.278 4.25253 109.261 4.25 107.156V85.3281H19.125C19.6886 85.3281 20.2291 85.1191 20.6276 84.7469C21.0261 84.3748 21.25 83.87 21.25 83.3438C21.25 82.8175 21.0261 82.3127 20.6276 81.9406C20.2291 81.5684 19.6886 81.3594 19.125 81.3594H10.625C11.5727 80.1869 12.2263 78.8306 12.5375 77.3906H80.75C81.3136 77.3906 81.8541 77.1816 82.2526 76.8094C82.6511 76.4373 82.875 75.9325 82.875 75.4062C82.875 74.88 82.6511 74.3752 82.2526 74.0031C81.8541 73.6309 81.3136 73.4219 80.75 73.4219H17V69.4531H65.875C66.4386 69.4531 66.9791 69.2441 67.3776 68.8719C67.7761 68.4998 68 67.995 68 67.4688C68 66.9425 67.7761 66.4377 67.3776 66.0656C66.9791 65.6934 66.4386 65.4844 65.875 65.4844H14.875C14.3114 65.4844 13.7709 65.6934 13.3724 66.0656C12.9739 66.4377 12.75 66.9425 12.75 67.4688V73.4219H10.625C10.0614 73.4219 9.52091 73.6309 9.1224 74.0031C8.72388 74.3752 8.5 74.88 8.5 75.4062C8.5024 76.1884 8.33866 76.9632 8.01827 77.6859C7.69788 78.4085 7.22719 79.0647 6.63345 79.6163C6.04273 80.1708 5.34009 80.6104 4.5662 80.9096C3.79232 81.2088 2.96258 81.3617 2.125 81.3594C1.56141 81.3594 1.02091 81.5684 0.622398 81.9406C0.223883 82.3127 0 82.8175 0 83.3438L0 107.156C0.00386665 110.313 1.34841 113.339 3.73866 115.571C6.12891 117.803 9.36968 119.059 12.75 119.062H17V125.016C17 125.542 17.2239 126.047 17.6224 126.419C18.0209 126.791 18.5614 127 19.125 127H80.75C81.3136 127 81.8541 126.791 82.2526 126.419C82.6511 126.047 82.875 125.542 82.875 125.016V119.062H87.125C90.5053 119.059 93.7461 117.803 96.1363 115.571C98.5266 113.339 99.8711 110.313 99.875 107.156V99.2188C99.875 98.6925 99.6511 98.1877 99.2526 97.8156C98.8541 97.4434 98.3136 97.2344 97.75 97.2344Z" fill="black"/>
<path d="M89.25 83.3438C89.25 82.8175 89.0261 82.3127 88.6276 81.9406C88.2291 81.5684 87.6886 81.3594 87.125 81.3594H36.125C35.5614 81.3594 35.0209 81.5684 34.6224 81.9406C34.2239 82.3127 34 82.8175 34 83.3438C34 83.87 34.2239 84.3748 34.6224 84.7469C35.0209 85.1191 35.5614 85.3281 36.125 85.3281H87.125C87.6886 85.3281 88.2291 85.1191 88.6276 84.7469C89.0261 84.3748 89.25 83.87 89.25 83.3438Z" fill="black"/>
<path d="M27.625 85.3281C28.7986 85.3281 29.75 84.4397 29.75 83.3438C29.75 82.2478 28.7986 81.3594 27.625 81.3594C26.4514 81.3594 25.5 82.2478 25.5 83.3438C25.5 84.4397 26.4514 85.3281 27.625 85.3281Z" fill="black"/>
<path d="M74.375 69.4531C75.5486 69.4531 76.5 68.5647 76.5 67.4688C76.5 66.3728 75.5486 65.4844 74.375 65.4844C73.2014 65.4844 72.25 66.3728 72.25 67.4688C72.25 68.5647 73.2014 69.4531 74.375 69.4531Z" fill="black"/>
<path d="M36.125 23.8125H42.5V53.5781C42.5 55.6833 43.3955 57.7022 44.9896 59.1908C46.5837 60.6794 48.7457 61.5156 51 61.5156C53.2543 61.5156 55.4163 60.6794 57.0104 59.1908C58.6045 57.7022 59.5 55.6833 59.5 53.5781V35.7188C59.5 34.6662 59.9478 33.6567 60.7448 32.9124C61.5418 32.1681 62.6228 31.75 63.75 31.75C64.8772 31.75 65.9582 32.1681 66.7552 32.9124C67.5522 33.6567 68 34.6662 68 35.7188C68 38.8765 69.3433 41.9049 71.7344 44.1377C74.1255 46.3706 77.3685 47.625 80.75 47.625C84.1315 47.625 87.3745 46.3706 89.7656 44.1377C92.1567 41.9049 93.5 38.8765 93.5 35.7188V23.8125H133.875C134.439 23.8125 134.979 23.6034 135.378 23.2313C135.776 22.8591 136 22.3544 136 21.8281C136 21.3018 135.776 20.7971 135.378 20.425C134.979 20.0528 134.439 19.8438 133.875 19.8438H93.5V5.95312C93.498 4.37482 92.8257 2.86169 91.6306 1.74566C90.4355 0.629631 88.8152 0.00183814 87.125 0L48.875 0C47.1848 0.00177262 45.5644 0.629544 44.3693 1.74559C43.1742 2.86163 42.5019 4.3748 42.5 5.95312V19.8438H36.125C34.4342 19.8437 32.8127 19.2165 31.6172 18.1001C30.4216 16.9837 29.75 15.4695 29.75 13.8906C29.75 12.3118 30.4216 10.7976 31.6172 9.68113C32.8127 8.5647 34.4342 7.9375 36.125 7.9375C36.6886 7.9375 37.2291 7.72843 37.6276 7.35629C38.0261 6.98415 38.25 6.47941 38.25 5.95312C38.25 5.42684 38.0261 4.9221 37.6276 4.54996C37.2291 4.17782 36.6886 3.96875 36.125 3.96875C33.3071 3.96875 30.6046 5.01409 28.612 6.8748C26.6194 8.73551 25.5 11.2592 25.5 13.8906C25.5 16.5221 26.6194 19.0457 28.612 20.9065C30.6046 22.7672 33.3071 23.8125 36.125 23.8125V23.8125ZM46.75 5.95312C46.7506 5.42702 46.9747 4.92263 47.3731 4.55061C47.7715 4.1786 48.3116 3.96934 48.875 3.96875H51V17.8594C51 18.3857 51.2239 18.8904 51.6224 19.2625C52.0209 19.6347 52.5614 19.8438 53.125 19.8438C53.6886 19.8438 54.2291 19.6347 54.6276 19.2625C55.0261 18.8904 55.25 18.3857 55.25 17.8594V3.96875H80.75V21.8281C80.75 22.3544 80.9739 22.8591 81.3724 23.2313C81.7709 23.6034 82.3114 23.8125 82.875 23.8125C83.4386 23.8125 83.9791 23.6034 84.3776 23.2313C84.7761 22.8591 85 22.3544 85 21.8281V3.96875H87.125C87.6884 3.96934 88.2285 4.1786 88.6269 4.55061C89.0253 4.92263 89.2494 5.42702 89.25 5.95312V35.7188C89.2491 37.1115 88.8559 38.4795 88.1099 39.6855C87.364 40.8915 86.2914 41.893 85 42.5896V29.7656C85 29.2393 84.7761 28.7346 84.3776 28.3625C83.9791 27.9903 83.4386 27.7812 82.875 27.7812C82.3114 27.7812 81.7709 27.9903 81.3724 28.3625C80.9739 28.7346 80.75 29.2393 80.75 29.7656V43.6562C78.4964 43.6539 76.3359 42.8169 74.7424 41.3288C73.1489 39.8407 72.2525 37.8232 72.25 35.7188C72.2476 33.9595 71.6205 32.2507 70.4669 30.8599C69.3134 29.469 67.6984 28.4747 65.875 28.0325V21.8281C65.875 21.3018 65.6511 20.7971 65.2526 20.425C64.8541 20.0528 64.3136 19.8438 63.75 19.8438C63.1864 19.8438 62.6459 20.0528 62.2474 20.425C61.8489 20.7971 61.625 21.3018 61.625 21.8281V28.0325C59.8016 28.4747 58.1866 29.469 57.0331 30.8599C55.8795 32.2507 55.2524 33.9595 55.25 35.7188V53.5781C55.25 54.6307 54.8022 55.6402 54.0052 56.3845C53.2082 57.1287 52.1272 57.5469 51 57.5469C49.8728 57.5469 48.7918 57.1287 47.9948 56.3845C47.1978 55.6402 46.75 54.6307 46.75 53.5781V5.95312Z" fill="black"/>
<path d="M99.875 7.9375H133.875C134.439 7.9375 134.979 7.72843 135.378 7.35629C135.776 6.98415 136 6.47941 136 5.95312C136 5.42684 135.776 4.9221 135.378 4.54996C134.979 4.17782 134.439 3.96875 133.875 3.96875H99.875C99.3114 3.96875 98.7709 4.17782 98.3724 4.54996C97.9739 4.9221 97.75 5.42684 97.75 5.95312C97.75 6.47941 97.9739 6.98415 98.3724 7.35629C98.7709 7.72843 99.3114 7.9375 99.875 7.9375Z" fill="black"/>
<path d="M74.375 27.7812C74.9386 27.7812 75.4791 27.5722 75.8776 27.2C76.2761 26.8279 76.5 26.3232 76.5 25.7969V17.8594C76.5 17.3331 76.2761 16.8284 75.8776 16.4562C75.4791 16.0841 74.9386 15.875 74.375 15.875C73.8114 15.875 73.2709 16.0841 72.8724 16.4562C72.4739 16.8284 72.25 17.3331 72.25 17.8594V25.7969C72.25 26.3232 72.4739 26.8279 72.8724 27.2C73.2709 27.5722 73.8114 27.7812 74.375 27.7812Z" fill="black"/>
<path d="M63.75 15.875C64.3136 15.875 64.8541 15.6659 65.2526 15.2938C65.6511 14.9216 65.875 14.4169 65.875 13.8906V9.92188C65.875 9.39559 65.6511 8.89085 65.2526 8.51871C64.8541 8.14657 64.3136 7.9375 63.75 7.9375C63.1864 7.9375 62.6459 8.14657 62.2474 8.51871C61.8489 8.89085 61.625 9.39559 61.625 9.92188V13.8906C61.625 14.4169 61.8489 14.9216 62.2474 15.2938C62.6459 15.6659 63.1864 15.875 63.75 15.875Z" fill="black"/>
<path d="M53.125 27.7812C54.2986 27.7812 55.25 26.8928 55.25 25.7969C55.25 24.7009 54.2986 23.8125 53.125 23.8125C51.9514 23.8125 51 24.7009 51 25.7969C51 26.8928 51.9514 27.7812 53.125 27.7812Z" fill="black"/>
<path d="M74.375 11.9062C75.5486 11.9062 76.5 11.0178 76.5 9.92188C76.5 8.82593 75.5486 7.9375 74.375 7.9375C73.2014 7.9375 72.25 8.82593 72.25 9.92188C72.25 11.0178 73.2014 11.9062 74.375 11.9062Z" fill="black"/>
<path d="M30.107 110.241C30.3011 110.513 30.564 110.736 30.8724 110.89C31.1808 111.044 31.5252 111.125 31.875 111.125H40.375C40.7248 111.125 41.0692 111.044 41.3776 110.89C41.686 110.736 41.9489 110.513 42.143 110.241L45.7621 105.172H51.9879L55.607 110.241C55.8011 110.513 56.064 110.736 56.3724 110.89C56.6808 111.044 57.0252 111.125 57.375 111.125H65.875C66.2248 111.125 66.5692 111.044 66.8776 110.89C67.186 110.736 67.4489 110.513 67.643 110.241L71.893 104.288C72.1257 103.962 72.2499 103.579 72.2499 103.188C72.2499 102.796 72.1257 102.413 71.893 102.087L67.643 96.1338C67.449 95.862 67.1861 95.6391 66.8777 95.4849C66.5692 95.3307 66.2248 95.25 65.875 95.25H58.5121L54.893 90.1807C54.699 89.9088 54.4361 89.6859 54.1277 89.5318C53.8192 89.3776 53.4748 89.2969 53.125 89.2969H44.625C44.2752 89.2969 43.9308 89.3776 43.6223 89.5318C43.3139 89.6859 43.051 89.9088 42.857 90.1807L39.2379 95.25H31.875C31.5252 95.25 31.1808 95.3307 30.8723 95.4849C30.5639 95.6391 30.301 95.862 30.107 96.1338L25.857 102.087C25.6243 102.413 25.5001 102.796 25.5001 103.188C25.5001 103.579 25.6243 103.962 25.857 104.288L30.107 110.241ZM58.5121 99.2188H64.7379L67.571 103.188L64.7379 107.156H58.5121L55.679 103.188L58.5121 99.2188ZM45.7621 93.2656H51.9879L54.821 97.2344L51.9879 101.203H45.7621L42.929 97.2344L45.7621 93.2656ZM33.0121 99.2188H39.2379L42.071 103.188L39.2379 107.156H33.0121L30.179 103.188L33.0121 99.2188Z" fill="black"/>
<path d="M134.677 112.296L110.582 79.092C110.387 78.8234 110.125 78.6034 109.818 78.4513C109.511 78.2991 109.169 78.2194 108.821 78.2191C108.436 78.2198 108.058 78.3183 107.728 78.504C107.397 78.6898 107.128 78.9558 106.947 79.2736C106.766 79.5915 106.681 79.9493 106.701 80.3087C106.721 80.6682 106.845 81.0158 107.06 81.3145C107.06 81.3148 107.06 81.3152 107.06 81.3155C107.06 81.3158 107.061 81.3161 107.061 81.3164C107.061 81.3167 107.061 81.3169 107.062 81.317C107.062 81.3172 107.062 81.3172 107.063 81.3172L131.16 114.521C131.792 115.393 132.027 116.463 131.814 117.497C131.601 118.531 130.957 119.444 130.023 120.035L126.507 122.26L85.8258 66.2037L89.3454 63.9765C89.8072 63.6837 90.3264 63.4788 90.8732 63.3736C91.4199 63.2683 91.9835 63.2648 92.5317 63.3631C93.0799 63.4615 93.602 63.6598 94.0681 63.9467C94.5341 64.2337 94.935 64.6036 95.2478 65.0354L97.5269 68.1759C97.679 68.4009 97.8779 68.5949 98.1119 68.7466C98.3459 68.8983 98.6101 69.0046 98.8889 69.059C99.1677 69.1134 99.4554 69.1149 99.7349 69.0635C100.014 69.012 100.28 68.9086 100.516 68.7594C100.752 68.6102 100.953 68.4183 101.108 68.195C101.262 67.9717 101.368 67.7216 101.417 67.4596C101.466 67.1976 101.458 66.9291 101.394 66.6699C101.33 66.4107 101.211 66.1662 101.043 65.951L98.7644 62.8107C97.9872 61.7368 96.9399 60.8573 95.7141 60.2493C94.4883 59.6413 93.1216 59.3233 91.7336 59.3232H91.715C90.0187 59.3224 88.3616 59.7996 86.9603 60.6924L81.6824 64.0311C81.2161 64.3265 80.8945 64.7828 80.7884 65.2996C80.6823 65.8164 80.8003 66.3514 81.1166 66.7869L124.18 126.129C124.496 126.565 124.986 126.866 125.539 126.965C126.093 127.064 126.667 126.953 127.133 126.658L132.409 123.319C133.333 122.734 134.124 121.986 134.739 121.115C135.353 120.245 135.777 119.27 135.988 118.246C136.199 117.223 136.191 116.17 135.966 115.149C135.742 114.128 135.303 113.159 134.677 112.296V112.296Z" fill="black"/>
<path d="M104.051 71.6483C103.576 71.6483 103.115 71.7965 102.741 72.0694C102.367 72.3423 102.101 72.7242 101.986 73.1544C101.872 73.5845 101.914 74.0381 102.108 74.443C102.301 74.8479 102.634 75.1808 103.053 75.3887C103.472 75.5965 103.954 75.6674 104.421 75.5901C104.889 75.5128 105.315 75.2916 105.632 74.9619C105.949 74.6322 106.14 74.2128 106.172 73.7706C106.205 73.3283 106.078 72.8886 105.812 72.5215C105.617 72.2522 105.355 72.0316 105.048 71.8793C104.741 71.7271 104.398 71.6477 104.051 71.6483Z" fill="black"/>
</svg>
