<svg width="16" height="19" viewBox="0 0 16 19" fill="none" xmlns="http://www.w3.org/2000/svg">
<path d="M15.9485 6.27465C15.9395 5.52055 15.8135 4.77393 15.5762 4.06822C15.3704 3.47295 15.056 2.93234 14.6532 2.48093C14.2504 2.02952 13.768 1.67723 13.2368 1.44658C12.6151 1.18507 11.9584 1.04367 11.2945 1.0284C10.4398 0.985581 10.1688 0.973633 7.99911 0.973633C5.82941 0.973633 5.55131 0.973633 4.7028 1.0284C4.03923 1.04378 3.38281 1.18518 2.76144 1.44658C2.23017 1.67707 1.74769 2.0293 1.34485 2.48073C0.942021 2.93216 0.627711 3.47286 0.422035 4.06822C0.188211 4.76433 0.062304 5.50012 0.0497557 6.24379C0.0115504 7.20263 0 7.50632 0 9.93778C0 12.3692 -6.6198e-09 12.6799 0.0497557 13.6318C0.0630831 14.3765 0.188361 15.1113 0.422035 15.8093C0.628057 16.4045 0.9426 16.945 1.34557 17.3962C1.74853 17.8475 2.23107 18.1995 2.76233 18.43C3.38199 18.702 4.03854 18.8535 4.70369 18.878C5.55931 18.9208 5.8303 18.9338 8 18.9338C10.1697 18.9338 10.4478 18.9338 11.2963 18.878C11.9602 18.8634 12.6169 18.7223 13.2386 18.4608C13.7696 18.2299 14.2519 17.8775 14.6547 17.4262C15.0575 16.9748 15.3719 16.4343 15.578 15.8392C15.8116 15.1422 15.9369 14.4074 15.9502 13.6616C15.9884 12.7038 16 12.4001 16 9.96765C15.9982 7.53619 15.9982 7.22752 15.9485 6.27465V6.27465ZM7.99378 14.5358C5.72457 14.5358 3.88627 12.4758 3.88627 9.9328C3.88627 7.38982 5.72457 5.32975 7.99378 5.32975C9.08316 5.32975 10.1279 5.81471 10.8982 6.67795C11.6685 7.54119 12.1013 8.71199 12.1013 9.9328C12.1013 11.1536 11.6685 12.3244 10.8982 13.1876C10.1279 14.0509 9.08316 14.5358 7.99378 14.5358V14.5358ZM12.2648 6.23283C12.139 6.23297 12.0144 6.20529 11.8981 6.1514C11.7818 6.0975 11.6762 6.01845 11.5872 5.91875C11.4983 5.81906 11.4277 5.70068 11.3796 5.5704C11.3316 5.44011 11.3069 5.30048 11.307 5.15949C11.307 5.0186 11.3317 4.87909 11.3798 4.74893C11.428 4.61876 11.4985 4.50049 11.5874 4.40087C11.6763 4.30125 11.7818 4.22222 11.898 4.1683C12.0141 4.11439 12.1386 4.08664 12.2643 4.08664C12.39 4.08664 12.5145 4.11439 12.6307 4.1683C12.7468 4.22222 12.8524 4.30125 12.9413 4.40087C13.0302 4.50049 13.1007 4.61876 13.1488 4.74893C13.1969 4.87909 13.2217 5.0186 13.2217 5.15949C13.2217 5.75292 12.7934 6.23283 12.2648 6.23283Z" fill="white"/>
<path d="M7.9938 12.9229C9.46738 12.9229 10.6619 11.5843 10.6619 9.93291C10.6619 8.28156 9.46738 6.94287 7.9938 6.94287C6.52022 6.94287 5.32565 8.28156 5.32565 9.93291C5.32565 11.5843 6.52022 12.9229 7.9938 12.9229Z" fill="white"/>
</svg>
