<svg width="16" height="15" viewBox="0 0 16 15" fill="none" xmlns="http://www.w3.org/2000/svg">
<path d="M5.03273 14.7847C6.26119 14.7933 7.47897 14.5286 8.61542 14.0057C9.75187 13.4829 10.7844 12.7124 11.653 11.7389C12.5217 10.7655 13.2093 9.60839 13.6758 8.33484C14.1424 7.06129 14.3786 5.6966 14.3709 4.31993V3.83907C15.0077 3.31623 15.5589 2.67374 16 1.94009C15.4004 2.23398 14.7659 2.42889 14.1164 2.51875C14.805 2.0589 15.3217 1.33508 15.5709 0.481217C14.9291 0.912718 14.2253 1.21606 13.4909 1.37773C12.9963 0.787145 12.3418 0.395686 11.6287 0.263923C10.9156 0.13216 10.1836 0.267439 9.54599 0.648828C8.90839 1.03022 8.40072 1.63645 8.10153 2.37374C7.80234 3.11102 7.72832 3.93825 7.89091 4.72743C6.5862 4.65567 5.30961 4.27675 4.14426 3.61535C2.97891 2.95396 1.95094 2.02492 1.12727 0.888723C0.711944 1.69654 0.586056 2.65104 0.775098 3.55897C0.96414 4.46689 1.45399 5.26039 2.14545 5.7788C1.63535 5.75675 1.13706 5.6004 0.690909 5.32239V5.36314C0.686376 6.20736 0.940161 7.02782 1.40997 7.68778C1.87977 8.34774 2.53722 8.80733 3.27273 8.98995C2.79828 9.13295 2.3013 9.15523 1.81818 9.05515C2.03112 9.77512 2.43759 10.4036 2.98185 10.8545C3.52612 11.3054 4.18152 11.5566 4.85818 11.5735C3.70124 12.6172 2.26334 13.1916 0.778182 13.2036C0.517784 13.1951 0.257998 13.1706 0 13.1302C1.50324 14.2035 3.25033 14.7694 5.03273 14.7602" fill="white"/>
</svg>
