<svg width="92" height="92" viewBox="0 0 92 92" fill="none" xmlns="http://www.w3.org/2000/svg">
<circle cx="46" cy="46" r="46" fill="#E6F5FC"/>
<path d="M40.875 23.3639C40.875 22.0588 41.8154 21 42.9844 21H50.0156C51.1846 21 52.125 22.0588 52.125 23.3639C52.125 24.6689 51.1846 25.7277 50.0156 25.7277H48.6094V29.0391C51.3076 29.4508 53.7773 30.6406 55.8428 32.3957L57.9346 30.0565L56.9414 28.9426C56.1152 28.0187 56.1152 26.5226 56.9414 25.5997C57.7676 24.6758 59.1035 24.6758 59.9209 25.5997L64.8955 31.1744C65.7217 32.0904 65.7217 33.5875 64.8955 34.5134C64.0693 35.4392 62.7334 35.4392 61.916 34.5134L60.9141 33.4004L58.8311 35.7445C60.3955 38.0592 61.459 40.8268 61.8281 43.8506H64.7812V42.2747C64.7812 40.9647 65.7217 39.9108 66.8906 39.9108C68.0596 39.9108 69 40.9647 69 42.2747V50.1542C69 51.4642 68.0596 52.5181 66.8906 52.5181C65.7217 52.5181 64.7812 51.4642 64.7812 50.1542V48.5783H61.8281C61.459 51.6021 60.3955 54.3697 58.8311 56.6844L60.9141 59.0285L61.916 57.9155C62.7334 56.9897 64.0693 56.9897 64.8955 57.9155C65.7217 58.8414 65.7217 60.3385 64.8955 61.2545L59.9209 66.8292C59.1035 67.7551 57.7676 67.7551 56.9414 66.8292C56.1152 65.9034 56.1152 64.4063 56.9414 63.4903L57.9346 62.3675L55.8428 60.0331C53.7773 61.7863 51.3076 62.9781 48.6094 63.3918V66.7012H50.0156C51.1846 66.7012 52.125 67.7551 52.125 69.065C52.125 70.375 51.1846 71.4289 50.0156 71.4289H42.9844C41.8154 71.4289 40.875 70.375 40.875 69.065C40.875 67.7551 41.8154 66.7012 42.9844 66.7012H44.3906V63.3918C41.6924 62.9781 39.2227 61.7863 37.1572 60.0331L35.0654 62.3773L36.0586 63.4903C36.8848 64.4063 36.8848 65.9034 36.0586 66.8292C35.2324 67.7551 33.8965 67.7551 33.0791 66.8292L28.1045 61.2545C27.2801 60.3385 27.2801 58.8414 28.1045 57.9155C28.928 56.9897 30.264 56.9897 31.0875 57.9155L32.0815 59.0285L34.1689 56.6844C32.6027 54.3697 31.541 51.6021 31.1736 48.5783H28.2188V50.1542C28.2188 51.4642 27.2739 52.5181 26.1094 52.5181C24.9448 52.5181 24 51.4642 24 50.1542V42.2747C24 40.9647 24.9448 39.9108 26.1094 39.9108C27.2739 39.9108 28.2188 40.9647 28.2188 42.2747V43.8506H31.1736C31.541 40.8268 32.6027 38.0592 34.1689 35.7445L32.0815 33.4004L31.0875 34.5134C30.2631 35.4392 28.928 35.4392 28.1045 34.5134C27.2801 33.5875 27.2801 32.0904 28.1045 31.1744L33.0791 25.5997C33.8965 24.6768 35.2324 24.6768 36.0586 25.5997C36.8848 26.5226 36.8848 28.0197 36.0586 28.9426L35.0654 30.0565L37.1572 32.3957C39.2227 30.6406 41.6924 29.4508 44.3906 29.0391V25.7277H42.9844C41.8154 25.7277 40.875 24.6699 40.875 23.3639ZM40.875 38.3349C38.5459 38.3349 36.6562 40.4526 36.6562 43.0626C36.6562 45.6727 38.5459 47.7904 40.875 47.7904C43.2041 47.7904 45.0938 45.6727 45.0938 43.0626C45.0938 40.4526 43.2041 38.3349 40.875 38.3349ZM50.7188 53.306C51.8877 53.306 52.8281 52.2521 52.8281 50.9422C52.8281 49.6322 51.8877 48.5783 50.7188 48.5783C49.5498 48.5783 48.6094 49.6322 48.6094 50.9422C48.6094 52.2521 49.5498 53.306 50.7188 53.306Z" fill="#0360D9"/>
</svg>
