<svg width="92" height="92" viewBox="0 0 92 92" fill="none" xmlns="http://www.w3.org/2000/svg">
<circle cx="46" cy="46" r="46" fill="#E6F5FC"/>
<path d="M46.8845 25.5796C46.8845 25.1607 46.7386 24.7589 46.479 24.4627C46.2193 24.1664 45.8672 24 45.5 24C45.1328 24 44.7807 24.1664 44.521 24.4627C44.2614 24.7589 44.1155 25.1607 44.1155 25.5796V42.1433L42.731 43.2712V35.7522C42.731 32.751 40.5989 30.3184 37.9683 30.3184C36.5174 30.3184 35.1356 31.1714 33.9727 32.1887C32.7792 33.2375 31.6273 34.6307 30.6056 36.0713C28.5676 38.9399 26.8757 42.2191 26.2305 43.9062C25.7432 45.1856 25.1423 47.5708 24.691 50.2593C24.2341 52.9668 23.9074 56.126 24.0237 58.9756C24.1344 61.7146 24.6688 64.6306 26.3441 66.3365C28.1993 68.232 30.8354 68.093 33.9339 66.3239L38.9042 63.4901C40.0541 62.8342 41.0212 61.8259 41.697 60.5782C42.3729 59.3306 42.731 57.8928 42.731 56.4261V54.0125C42.731 53.5935 42.5851 53.1917 42.3255 52.8955C42.0658 52.5993 41.7137 52.4329 41.3465 52.4329C40.9793 52.4329 40.6272 52.5993 40.3675 52.8955C40.1079 53.1917 39.962 53.5935 39.962 54.0125V56.4261C39.962 57.3066 39.7469 58.1697 39.341 58.9186C38.935 59.6674 38.3542 60.2724 37.6637 60.6657L32.6962 63.4996C29.9881 65.0444 28.778 64.5832 28.1882 63.9798C27.4129 63.19 26.8951 61.4492 26.7899 58.8302C26.6874 56.3187 26.9782 53.428 27.4101 50.8533C27.8449 48.2627 28.3987 46.1429 28.7697 45.1667C29.2958 43.7829 30.8465 40.7438 32.7571 38.0585C33.7041 36.7253 34.7037 35.5343 35.6618 34.6939C36.6531 33.822 37.4311 33.4776 37.9683 33.4776C38.4971 33.4776 39.0042 33.7173 39.3781 34.1438C39.752 34.5704 39.962 35.149 39.962 35.7522V45.5268L35.0055 49.5706C34.7275 49.8224 34.5449 50.1863 34.4954 50.5872C34.4458 50.9882 34.5331 51.3955 34.7392 51.7252C34.9454 52.0548 35.2545 52.2815 35.603 52.3585C35.9514 52.4356 36.3124 52.357 36.6115 52.139L45.5 44.895L54.3885 52.139C54.5361 52.2673 54.7047 52.3603 54.8845 52.4127C55.0642 52.4651 55.2513 52.4758 55.4347 52.4441C55.6182 52.4123 55.7941 52.3389 55.9522 52.228C56.1102 52.1172 56.2471 51.9713 56.3548 51.7989C56.4624 51.6266 56.5386 51.4313 56.5788 51.2246C56.619 51.018 56.6224 50.8043 56.5888 50.5961C56.5552 50.388 56.4853 50.1897 56.3832 50.013C56.2811 49.8363 56.1489 49.6848 55.9945 49.5675L51.038 45.5268V35.7522C51.038 35.149 51.248 34.5704 51.6219 34.1438C51.9958 33.7173 52.5029 33.4776 53.0317 33.4776C53.5689 33.4776 54.3469 33.8251 55.3382 34.6939C56.2963 35.5343 57.2932 36.7253 58.2457 38.0616C60.1508 40.747 61.7014 43.7829 62.2303 45.1667C62.6013 46.1429 63.1551 48.2627 63.5899 50.8533C64.0218 53.4248 64.3098 56.3187 64.2101 58.8302C64.1049 61.4492 63.5899 63.19 62.8118 63.9798C62.222 64.58 61.0119 65.0444 58.3038 63.4996L53.3335 60.6657C52.6435 60.272 52.0633 59.6668 51.6578 58.918C51.2524 58.1691 51.0378 57.3063 51.038 56.4261V54.0125C51.038 53.5935 50.8921 53.1917 50.6325 52.8955C50.3728 52.5993 50.0207 52.4329 49.6535 52.4329C49.2863 52.4329 48.9341 52.5993 48.6745 52.8955C48.4149 53.1917 48.269 53.5935 48.269 54.0125V56.4261C48.269 57.8928 48.6271 59.3306 49.303 60.5782C49.9788 61.8259 50.9459 62.8342 52.0957 63.4901L57.0661 66.3239C60.1674 68.093 62.7979 68.2289 64.6559 66.3365C66.3312 64.6306 66.8656 61.7146 66.9763 58.9756C67.0926 56.126 66.7659 52.9668 66.3118 50.2593C65.8577 47.5677 65.2596 45.1856 64.7667 43.903C64.1243 42.2191 62.4324 38.9399 60.3944 36.0713C59.3699 34.6307 58.2208 33.2375 57.0273 32.1887C55.8644 31.1714 54.4826 30.3184 53.0317 30.3184C50.4011 30.3184 48.269 32.751 48.269 35.7522V43.2712L46.8845 42.1433V25.5796Z" fill="#1379B1"/>
</svg>
