<svg width="92" height="92" viewBox="0 0 92 92" fill="none" xmlns="http://www.w3.org/2000/svg">
<circle cx="46" cy="46" r="46" fill="#E6F5FC"/>
<path d="M26.8361 38.7138V38.6805C26.8361 35.3854 27.6989 32.1642 29.3157 29.4231C30.9325 26.6821 33.2309 24.544 35.9208 23.2788C38.6108 22.0135 41.5718 21.6777 44.4303 22.3137C47.2888 22.9497 49.9167 24.529 51.9825 26.8523C53.6079 25.945 55.4234 25.5635 57.2285 25.75C59.0335 25.9365 60.7579 26.6838 62.211 27.9092C63.6641 29.1347 64.7894 30.7906 65.4626 32.6941C66.1358 34.5975 66.3306 36.6745 66.0256 38.6953C66.474 38.7424 66.9091 38.8935 67.3036 39.1392C67.6981 39.3849 68.0436 39.72 68.3185 40.1235C68.5935 40.5269 68.7919 40.9902 68.9015 41.4842C69.0111 41.9783 69.0295 42.4926 68.9555 42.9951C67.4742 53.0737 63.8102 59.453 57.9701 62.1366V64.6275C57.9701 66.1022 57.4522 67.5164 56.5303 68.5591C55.6084 69.6018 54.358 70.1876 53.0542 70.1876H39.9452C38.6414 70.1876 37.391 69.6018 36.4691 68.5591C35.5472 67.5164 35.0293 66.1022 35.0293 64.6275V62.1366C29.1892 59.453 25.5252 53.0737 24.0439 42.9951C23.9724 42.506 23.9884 42.0056 24.0909 41.5236C24.1934 41.0416 24.3804 40.5877 24.6407 40.1889C24.9011 39.7901 25.2295 39.4543 25.6066 39.2016C25.9837 38.9489 26.4018 38.7843 26.8361 38.7176V38.7138ZM30.1134 38.6805H33.3906C33.3906 36.2228 34.2538 33.8657 35.7904 32.1279C37.3269 30.39 39.4108 29.4137 41.5838 29.4137C43.7567 29.4137 45.8407 30.39 47.3772 32.1279C48.9137 33.8657 49.7769 36.2228 49.7769 38.6805H53.0542C53.0542 35.2397 51.8457 31.9398 49.6946 29.5068C47.5435 27.0738 44.6259 25.707 41.5838 25.707C38.5416 25.707 35.6241 27.0738 33.473 29.5068C31.3219 31.9398 30.1134 35.2397 30.1134 38.6805V38.6805ZM36.6679 38.6805H46.4997C46.4997 37.2059 45.9818 35.7916 45.0598 34.7489C44.1379 33.7062 42.8876 33.1204 41.5838 33.1204C40.28 33.1204 39.0296 33.7062 38.1077 34.7489C37.1858 35.7916 36.6679 37.2059 36.6679 38.6805ZM59.1696 38.6805H62.6795C62.9269 37.585 62.95 36.4402 62.747 35.3331C62.5439 34.2261 62.1201 33.1861 61.5079 32.2923C60.8956 31.3986 60.1111 30.6747 59.214 30.1758C58.317 29.677 57.3311 29.4163 56.3315 29.4137C55.5449 29.4137 54.7977 29.5694 54.1029 29.8548C54.683 30.9075 55.1615 32.0418 55.5285 33.2316C56.1527 33.0565 56.8087 33.0926 57.4149 33.3353C58.0212 33.578 58.551 34.0168 58.9388 34.5971C59.3266 35.1774 59.5552 35.8737 59.5962 36.5996C59.6372 37.3255 59.4889 38.0491 59.1696 38.6805V38.6805ZM54.6928 62.7742H38.3065V64.6275C38.3065 65.1191 38.4792 65.5905 38.7865 65.9381C39.0938 66.2856 39.5106 66.4809 39.9452 66.4809H53.0542C53.4888 66.4809 53.9056 66.2856 54.2129 65.9381C54.5202 65.5905 54.6928 65.1191 54.6928 64.6275V62.7742ZM37.1529 59.0675H55.8464C61.0442 57.177 64.3345 51.8319 65.7241 42.3872H27.2753C28.6648 51.8319 31.9552 57.177 37.1529 59.0675Z" fill="#0360D9"/>
</svg>
