<svg width="92" height="92" viewBox="0 0 92 92" fill="none" xmlns="http://www.w3.org/2000/svg">
<circle cx="46" cy="46" r="46" fill="#E6F5FC"/>
<path d="M43.8889 27C47.5044 27.0003 50.9962 28.4655 53.7132 31.1224C56.4303 33.7793 58.1869 37.4464 58.6554 41.4398L62.843 48.7768C63.1185 49.2598 63.0626 49.9792 62.4242 50.286L58.7782 52.0234V58.0978C58.7782 59.1975 58.3861 60.2522 57.688 61.0298C56.9899 61.8073 56.0431 62.2442 55.0559 62.2442H51.3354L51.3336 68.4638H34.5831V60.8054C34.5831 58.359 33.7717 56.0433 32.2678 53.9535C30.5142 51.5145 29.4148 48.5732 29.0963 45.4685C28.7778 42.3638 29.2532 39.222 30.4677 36.4052C31.6822 33.5883 33.5864 31.2109 35.9609 29.5469C38.3354 27.883 41.0836 27.0001 43.8889 27V27ZM43.8889 31.1464C41.785 31.1463 39.7239 31.8082 37.943 33.056C36.1621 34.3037 34.7338 36.0865 33.8228 38.199C32.9117 40.3114 32.555 42.6676 32.7935 44.996C33.0321 47.3245 33.8563 49.5305 35.1713 51.36C37.2074 54.1878 38.3055 57.4074 38.3055 60.8054V64.3174H47.6113L47.615 58.0978H55.0559V49.2909L57.9407 47.9143L55.0689 42.8868L54.9628 41.9705C54.6105 38.9766 53.2928 36.2276 51.2553 34.2361C49.2178 32.2446 46.5996 31.1464 43.8889 31.1464V31.1464ZM42.9025 38.9478L43.8889 40.0466L44.8754 38.9478C45.1757 38.6012 45.5351 38.3247 45.9324 38.1345C46.3298 37.9443 46.7571 37.8441 47.1896 37.8398C47.6221 37.8355 48.051 37.9272 48.4513 38.1095C48.8516 38.2919 49.2153 38.5612 49.5212 38.9018C49.827 39.2424 50.0689 39.6474 50.2328 40.0932C50.3966 40.5391 50.4791 41.0168 50.4755 41.4985C50.4718 41.9803 50.382 42.4563 50.2114 42.899C50.0408 43.3417 49.7927 43.7421 49.4817 44.0769L43.8889 50.3089L38.2961 44.0769C37.9851 43.7421 37.7371 43.3417 37.5665 42.899C37.3958 42.4563 37.3061 41.9803 37.3024 41.4985C37.2987 41.0168 37.3812 40.5391 37.5451 40.0932C37.7089 39.6474 37.9508 39.2424 38.2567 38.9018C38.5626 38.5612 38.9263 38.2919 39.3266 38.1095C39.7269 37.9272 40.1558 37.8355 40.5883 37.8398C41.0207 37.8441 41.4481 37.9443 41.8454 38.1345C42.2428 38.3247 42.6021 38.6012 42.9025 38.9478V38.9478Z" fill="#0360D9"/>
</svg>
