<svg width="41" height="46" viewBox="0 0 41 46" fill="none" xmlns="http://www.w3.org/2000/svg">
<path d="M7.30683 24.2578H3.41992V16.1719H6.52539H8.46931V13.4766H6.68191H0.314453V26.9531H8.82758C8.5219 26.5282 11.3404 26.0925 11.0834 25.644C10.8263 25.1956 7.49347 24.7343 7.30683 24.2578Z" fill="#53433F"/>
<path d="M40.6855 38.7586V46H0.314453V38.7586L4.00996 32.3438H10.5313L20.5 38.3003L30.4687 32.3438H36.99L40.6855 38.7586Z" fill="#A24BDB"/>
<path d="M40.6855 38.7586V46H20.5V38.3003L30.4687 32.3438H36.99L40.6855 38.7586Z" fill="#8B3CBA"/>
<path d="M28.2637 30.9961L24.8166 37.2492L20.5 40.9956L10.5313 32.3438H14.2891C14.4754 32.3438 14.6307 32.2628 14.7858 32.209C15.1895 32.1011 15.5314 31.8854 15.6865 31.5619C12.8915 30.6726 10.5313 29.0283 8.9166 26.953L9.63086 25.6055L7.36397 24.2578C6.83594 22.9909 6.52539 21.6163 6.52539 20.2148V13.4766L14.8791 10.7812L20.5 12.587L23.2328 13.4766L28.2637 30.9961Z" fill="#FFCEBF"/>
<path d="M28.2637 30.9961L24.8166 37.2492L20.5 40.9956V12.587L23.2328 13.4765L28.2637 30.9961Z" fill="#FFBFAB"/>
<path d="M6.52539 12.1289V13.4766H23.2173L22.0527 9.43359L21.0942 8.08594L14.8713 5.39062L7.3412 8.08594C6.82528 9.353 6.52539 10.7086 6.52539 12.1289Z" fill="#68544F"/>
<path d="M7.34119 8.08593H21.0942L15.8418 0.700775C11.8684 1.90288 8.74434 4.64042 7.34119 8.08593Z" fill="#53433F"/>
<path d="M20.5 0C19.9722 0 19.444 0.0269531 18.9473 0.0807695C17.8605 0.188672 16.8355 0.377344 15.8418 0.700781V9.43359C15.8418 12.2097 17.7672 14.5816 20.5 15.6058C20.9968 15.7944 21.5249 15.9562 22.0527 16.0371V30.9961C22.0527 33.3949 23.0776 35.605 24.8166 37.2492C26.8041 39.2167 29.6922 40.4297 32.9219 40.4297H34.4746V12.1289C34.4746 5.41758 28.2326 0 20.5 0Z" fill="#FF5E95"/>
<path d="M34.4746 12.1289V40.4297H32.9219C29.6923 40.4297 26.8042 39.2168 24.8166 37.2492C23.0775 35.605 22.0527 33.3949 22.0527 30.9961V16.0371C21.5249 15.9562 20.9968 15.7944 20.5 15.6058V0C28.2326 0 34.4746 5.41758 34.4746 12.1289Z" fill="#FF3980"/>
</svg>
