<svg width="34" height="32" viewBox="0 0 34 32" fill="none" xmlns="http://www.w3.org/2000/svg">
<path d="M18.3777 1.46325L21.4787 8.66408C21.8406 9.50452 22.6328 10.0801 23.5439 10.1646L31.3506 10.8886C32.6613 11.0102 33.1909 12.6404 32.2021 13.5091L26.3119 18.6835C25.6245 19.2875 25.3219 20.2187 25.5231 21.1114L27.2468 28.7597C27.5362 30.0438 26.1495 31.0513 25.0177 30.3793L18.2764 26.3764C17.4896 25.9092 16.5104 25.9092 15.7236 26.3764L8.98229 30.3793C7.8505 31.0513 6.46375 30.0438 6.75316 28.7597L8.47694 21.1114C8.67813 20.2187 8.37555 19.2875 7.68808 18.6835L1.79794 13.5091C0.809052 12.6404 1.33874 11.0102 2.6494 10.8886L10.4561 10.1646C11.3672 10.0801 12.1594 9.50452 12.5213 8.66408L15.6223 1.46325C16.1429 0.254303 17.8571 0.254303 18.3777 1.46325Z" stroke="black"/>
</svg>
